<svg width="272" height="13" viewBox="0 0 272 13" fill="none" xmlns="http://www.w3.org/2000/svg">
<path d="M7.625 3.42045H9.31818C9.26705 1.55682 7.61932 0.204545 5.25568 0.204545C2.92045 0.204545 1.13068 1.53977 1.13068 3.54545C1.13068 5.16477 2.28977 6.11364 4.15909 6.61932L5.53409 6.99432C6.77841 7.32386 7.73864 7.73295 7.73864 8.76705C7.73864 9.90341 6.65341 10.6534 5.15909 10.6534C3.80682 10.6534 2.68182 10.0511 2.57955 8.78409H0.818182C0.931818 10.892 2.5625 12.1932 5.17045 12.1932C7.90341 12.1932 9.47727 10.7557 9.47727 8.78409C9.47727 6.6875 7.60795 5.875 6.13068 5.51136L4.99432 5.21591C4.08523 4.98295 2.875 4.55682 2.88068 3.44318C2.88068 2.45455 3.78409 1.72159 5.21591 1.72159C6.55114 1.72159 7.5 2.34659 7.625 3.42045ZM14.7753 12H16.531V6.92614H22.3321V12H24.0935V0.363636H22.3321V5.42045H16.531V0.363636H14.7753V12ZM30.8332 12L31.9014 8.92045H36.4469L37.5094 12H39.373L35.1855 0.363636H33.1571L28.9696 12H30.8332ZM32.4128 7.44318L34.1287 2.47727H34.2196L35.9355 7.44318H32.4128ZM44.2534 12H46.0091V7.59659H48.3955C48.4352 7.59659 48.4693 7.59659 48.5091 7.59659L50.8727 12H52.8727L50.2932 7.28977C51.7193 6.76136 52.4295 5.57386 52.4295 4.01136C52.4295 1.86932 51.1 0.363636 48.4011 0.363636H44.2534V12ZM46.0091 6.08523V1.86932H48.2136C49.9466 1.86932 50.6625 2.69318 50.6625 4.01136C50.6625 5.32386 49.9466 6.08523 48.2364 6.08523H46.0091ZM57.7659 12H65.1295V10.4886H59.5216V6.92614H64.6807V5.42045H59.5216V1.875H65.0614V0.363636H57.7659V12ZM77.1432 0.363636L81.3648 7.43182V12H83.1148V7.43182L87.3364 0.363636H85.342L82.3023 5.65341H82.1773L79.1375 0.363636H77.1432ZM101.693 6.18182C101.693 2.46023 99.4653 0.204545 96.454 0.204545C93.4313 0.204545 91.2097 2.46023 91.2097 6.18182C91.2097 9.89773 93.4313 12.1591 96.454 12.1591C99.4653 12.1591 101.693 9.90341 101.693 6.18182ZM99.954 6.18182C99.954 9.01705 98.454 10.5568 96.454 10.5568C94.4483 10.5568 92.954 9.01705 92.954 6.18182C92.954 3.34659 94.4483 1.80682 96.454 1.80682C98.454 1.80682 99.954 3.34659 99.954 6.18182ZM114.57 0.363636V8.03409C114.57 9.66477 113.269 10.5795 111.701 10.5795C110.144 10.5795 108.837 9.66477 108.837 8.03409V0.363636H107.082V8.0625C107.082 10.6875 109.127 12.1932 111.701 12.1932C114.275 12.1932 116.326 10.6875 116.326 8.0625V0.363636H114.57ZM122.078 12H123.834V7.59659H126.22C126.26 7.59659 126.294 7.59659 126.334 7.59659L128.698 12H130.698L128.118 7.28977C129.544 6.76136 130.255 5.57386 130.255 4.01136C130.255 1.86932 128.925 0.363636 126.226 0.363636H122.078V12ZM123.834 6.08523V1.86932H126.039C127.772 1.86932 128.488 2.69318 128.488 4.01136C128.488 5.32386 127.772 6.08523 126.061 6.08523H123.834ZM153.133 6.18182C153.133 2.46023 150.906 0.204545 147.895 0.204545C144.872 0.204545 142.65 2.46023 142.65 6.18182C142.65 9.89773 144.872 12.1591 147.895 12.1591C150.906 12.1591 153.133 9.90341 153.133 6.18182ZM151.395 6.18182C151.395 9.01705 149.895 10.5568 147.895 10.5568C145.889 10.5568 144.395 9.01705 144.395 6.18182C144.395 3.34659 145.889 1.80682 147.895 1.80682C149.895 1.80682 151.395 3.34659 151.395 6.18182ZM160.801 12H162.573L165.022 3.28409H165.113L167.562 12H169.329L172.562 0.363636H170.71L168.448 9.38068H168.34L165.982 0.363636H164.153L161.795 9.375H161.687L159.42 0.363636H157.573L160.801 12ZM186.755 0.363636H185.016V8.90909H184.908L178.988 0.363636H177.363V12H179.118V3.46591H179.226L185.141 12H186.755V0.363636ZM206.297 3.42045H207.99C207.939 1.55682 206.291 0.204545 203.928 0.204545C201.592 0.204545 199.803 1.53977 199.803 3.54545C199.803 5.16477 200.962 6.11364 202.831 6.61932L204.206 6.99432C205.45 7.32386 206.411 7.73295 206.411 8.76705C206.411 9.90341 205.325 10.6534 203.831 10.6534C202.479 10.6534 201.354 10.0511 201.251 8.78409H199.49C199.604 10.892 201.234 12.1932 203.842 12.1932C206.575 12.1932 208.149 10.7557 208.149 8.78409C208.149 6.6875 206.28 5.875 204.803 5.51136L203.666 5.21591C202.757 4.98295 201.547 4.55682 201.553 3.44318C201.553 2.45455 202.456 1.72159 203.888 1.72159C205.223 1.72159 206.172 2.34659 206.297 3.42045ZM212.873 1.875H216.498V12H218.248V1.875H221.879V0.363636H212.873V1.875ZM236.693 6.18182C236.693 2.46023 234.465 0.204545 231.454 0.204545C228.431 0.204545 226.21 2.46023 226.21 6.18182C226.21 9.89773 228.431 12.1591 231.454 12.1591C234.465 12.1591 236.693 9.90341 236.693 6.18182ZM234.954 6.18182C234.954 9.01705 233.454 10.5568 231.454 10.5568C229.448 10.5568 227.954 9.01705 227.954 6.18182C227.954 3.34659 229.448 1.80682 231.454 1.80682C233.454 1.80682 234.954 3.34659 234.954 6.18182ZM242.082 12H243.837V7.59659H246.224C246.263 7.59659 246.297 7.59659 246.337 7.59659L248.701 12H250.701L248.121 7.28977C249.547 6.76136 250.258 5.57386 250.258 4.01136C250.258 1.86932 248.928 0.363636 246.229 0.363636H242.082V12ZM243.837 6.08523V1.86932H246.042C247.775 1.86932 248.491 2.69318 248.491 4.01136C248.491 5.32386 247.775 6.08523 246.064 6.08523H243.837ZM254.696 0.363636L258.918 7.43182V12H260.668V7.43182L264.889 0.363636H262.895L259.855 5.65341H259.73L256.691 0.363636H254.696ZM271.753 0.363636H269.884L270.031 8.65341H271.605L271.753 0.363636ZM270.815 12.108C271.435 12.108 271.952 11.6023 271.952 10.9716C271.952 10.3523 271.435 9.84091 270.815 9.84091C270.19 9.84091 269.679 10.3523 269.679 10.9716C269.679 11.6023 270.19 12.108 270.815 12.108Z" fill="white"/>
</svg>
